<?xml version="1.0" standalone="no"?>
<!DOCTYPE svg PUBLIC "-//W3C//DTD SVG 1.1//EN" "http://www.w3.org/Graphics/SVG/1.1/DTD/svg11.dtd" >
<svg xmlns="http://www.w3.org/2000/svg">
<metadata></metadata>
<defs>
<font id="ageone_serifageone_serif" horiz-adv-x="1110" >
<font-face units-per-em="2048" ascent="1536" descent="-512" />
<missing-glyph horiz-adv-x="501" />
<glyph horiz-adv-x="2048" />
<glyph horiz-adv-x="2048" />
<glyph unicode="&#xd;" horiz-adv-x="501" />
<glyph unicode=" "  horiz-adv-x="501" />
<glyph unicode="&#x09;" horiz-adv-x="501" />
<glyph unicode="&#xa0;" horiz-adv-x="501" />
<glyph unicode="!" horiz-adv-x="337" d="M-6 102q0 41 30.5 72t71.5 31q43 0 73 -31t30 -72q0 -43 -30 -72.5t-73 -29.5q-41 0 -71.5 29.5t-30.5 72.5zM0 1532h195l-21 -1110h-154z" />
<glyph unicode="&#x26;" horiz-adv-x="1142" d="M0 467q0 68 14.5 119t38 90t54 66.5t65.5 48.5q-78 47 -125 118.5t-47 167.5v101q0 84 37 150.5t98.5 112.5t141 69.5t165.5 23.5h17q86 0 166 -23.5t141 -69.5t98 -112.5t37 -150.5v-101q0 -84 -37 -149.5t-98 -111.5t-141 -70.5t-166 -24.5h-17h-22t-23 2 q-121 -41 -162.5 -110.5t-41.5 -163.5q0 -80 16 -145.5t53 -114t94.5 -74t139.5 -25.5h249h15v277q-2 35 -25.5 67.5t-64.5 34.5h-211v49q29 14 71.5 28.5t118.5 14.5h180q76 0 119 -14.5t72 -28.5v-49h-152q68 -78 68 -195v-274h-496q-86 0 -165.5 29.5t-140 89 t-97.5 146.5t-37 202zM180 1083q0 -57 17.5 -107t51.5 -87t82 -57.5t111 -20.5h17q61 0 110 20.5t82 57.5t50.5 87t17.5 107v88q0 57 -17.5 107.5t-50.5 87.5t-82 58.5t-110 21.5h-17q-63 0 -111 -21.5t-82 -58.5t-51.5 -87t-17.5 -108v-88z" />
<glyph unicode="'" horiz-adv-x="380" d="M0 956q23 33 43 74q16 35 29.5 87t13.5 122v293h152v-293q0 -68 -26 -120t-56 -89q-37 -43 -80 -74h-76z" />
<glyph unicode="," horiz-adv-x="380" d="M0 -176q23 33 43 74q16 35 30.5 87t14.5 121v99h150v-99q0 -68 -26 -120t-56 -88q-37 -43 -80 -74h-76z" />
<glyph unicode="-" horiz-adv-x="837" d="M0 510v143h694v-143h-694z" />
<glyph unicode="." horiz-adv-x="292" d="M0 0v205h150v-205h-150z" />
<glyph unicode="0" horiz-adv-x="1161" d="M0 330v872q0 84 38 149.5t99.5 111.5t141 71t165.5 25h131q86 0 166 -25t141.5 -71t98.5 -111.5t37 -149.5v-872q0 -84 -37 -149.5t-98.5 -111.5t-141 -71t-166.5 -25h-131q-86 0 -165.5 25t-141 71t-99.5 111.5t-38 149.5zM182 338q0 -117 67.5 -196t194.5 -79h131 q125 0 193 79t68 196v856q0 117 -68 195.5t-193 78.5h-131q-127 0 -194.5 -78.5t-67.5 -195.5v-856z" />
<glyph unicode="1" horiz-adv-x="696" d="M0 1487v45h553v-1532h-195v1444h-168q-74 0 -117.5 12t-72.5 31z" />
<glyph unicode="2" horiz-adv-x="1202" d="M0 0v467q0 100 30.5 166.5t77 109.5t102.5 67t105 38q29 8 74 20.5t97.5 25.5t107.5 27.5t108 28.5q82 23 122 82.5t40 130.5q0 61 -21.5 112.5t-62.5 89.5t-99 59.5t-132 21.5h-230q-74 0 -117.5 12t-72.5 31v45h475q86 0 167 -23.5t143.5 -70.5t102.5 -119t42 -168 q0 -57 -18.5 -109.5t-52.5 -95.5t-79 -72.5t-98 -41.5q-12 -4 -68.5 -18.5t-121 -32t-123 -33t-74.5 -19.5q-68 -20 -113 -48t-71.5 -63.5t-36.5 -78.5t-10 -92v-359h675q74 0 118 -12t73 -33v-45h-1059z" />
<glyph unicode="3" horiz-adv-x="1191" d="M0 0v45q29 20 72 32.5t118 12.5h312q49 0 112.5 7t121 36t95 83t35.5 151v151q2 94 -35.5 150.5t-95 85t-121 38t-112.5 9.5h-396v84h283q49 0 111.5 9t118 38t94.5 85t41 150t-36 149.5t-95.5 84.5t-121 36t-112.5 7h-199q-76 0 -118.5 12t-71.5 31v45h442q41 0 95.5 -4 t109.5 -17.5t107.5 -37t93.5 -63.5t65.5 -97.5t22.5 -136.5v-15q2 -59 -12.5 -106t-39 -84t-58 -63.5t-72.5 -45.5q55 -12 109.5 -36.5t95 -64.5t66.5 -97.5t24 -139.5v-166q2 -121 -50.5 -191.5t-130 -107t-164 -48t-149.5 -11.5h-555z" />
<glyph unicode="4" horiz-adv-x="1138" d="M0 920v612h193v-604q0 -117 61 -196t188 -79h111q137 0 250 -59v938h192v-1532h-180v291q0 57 -17.5 107.5t-51 87t-82 57t-111.5 20.5h-111q-86 0 -165.5 24.5t-141 71t-98.5 112t-37 149.5z" />
<glyph unicode="5" horiz-adv-x="1140" d="M2 0v45q29 20 72 32.5t119 12.5h362q127 0 193.5 79t66.5 196v219q0 117 -66.5 195.5t-193.5 78.5h-553v674h881v-45q-29 -18 -72 -30.5t-119 -12.5h-497v-498h360q86 0 166 -23.5t141.5 -69.5t98 -112.5t36.5 -150.5v-234q0 -84 -36.5 -149.5t-98 -111.5t-141.5 -70.5 t-166 -24.5h-553z" />
<glyph unicode="6" horiz-adv-x="1159" d="M0 330v260q0 84 37 150.5t98.5 112.5t141 69.5t165.5 23.5h432v-88h-432q-127 0 -193.5 -79t-66.5 -195v-246q0 -117 66.5 -196t193.5 -79h131q127 0 194 79t67 196v246v585q0 117 -67 196t-194 79h-190q-74 0 -118 12t-72 31v45h380q86 0 166 -23.5t141.5 -69.5 t98.5 -112.5t37 -150.5v-846q0 -84 -37 -149.5t-98.5 -111.5t-141.5 -71t-166 -25h-131q-86 0 -165.5 25t-141 71t-98.5 111.5t-37 149.5z" />
<glyph unicode="7" horiz-adv-x="978" d="M0 1487v45h823l-393 -1532h-184l221 858h-139q-76 0 -119 12.5t-72 30.5v45h352l129 498h-428q-76 0 -118.5 12t-71.5 31z" />
<glyph unicode="8" horiz-adv-x="1200" d="M0 330v260q0 84 37 149.5t98.5 111.5t141 70.5t165.5 24.5h172q86 0 166 -24.5t141.5 -70.5t98.5 -111.5t37 -149.5v-260q0 -84 -37 -149.5t-98.5 -111.5t-141.5 -71t-166 -25h-172q-86 0 -165.5 25t-141 71t-98.5 111.5t-37 149.5zM92 1157v107q0 70 31 125t82 93 t116.5 57.5t135.5 19.5h143q70 0 135.5 -19.5t116.5 -57.5t82 -93.5t31 -124.5v-107q0 -70 -31 -125t-82 -93t-116.5 -57.5t-135.5 -19.5h-143q-70 0 -135.5 19.5t-116.5 57.5t-82 93t-31 125zM182 338q0 -117 66.5 -196t193.5 -79h172q127 0 193.5 79t66.5 196v244 q0 117 -66.5 195.5t-193.5 78.5h-172q-127 0 -193.5 -79t-66.5 -195v-244zM252 1163q0 -92 54 -154.5t155 -62.5h135q100 0 154.5 62.5t54.5 154.5v94q0 92 -54.5 156t-154.5 64h-135q-100 0 -154.5 -63.5t-54.5 -156.5v-94z" />
<glyph unicode="9" horiz-adv-x="1161" d="M0 915v261q0 84 37 149.5t99.5 111.5t142 70.5t165.5 24.5h129q86 0 166 -24.5t141.5 -70.5t99.5 -111.5t38 -149.5v-261q0 -10 -1 -18t-1 -18h2v-523q0 -84 -38 -150.5t-99.5 -112.5t-141.5 -69.5t-166 -23.5h-378v45q29 18 71.5 30.5t118.5 12.5h188q63 0 111.5 21.5 t82.5 58.5t51.5 87t17.5 107v560v245q0 117 -68 196t-195 79h-129q-127 0 -194.5 -79t-67.5 -196v-245q0 -57 17.5 -107.5t51.5 -87.5t82 -58.5t111 -21.5h430v-88h-430q-86 0 -165.5 23.5t-142 69.5t-99.5 112.5t-37 150.5z" />
<glyph unicode=":" horiz-adv-x="292" d="M0 195v204h150v-204h-150zM0 752v204h150v-204h-150z" />
<glyph unicode=";" horiz-adv-x="380" d="M0 -176q23 33 43 74q16 35 30.5 87t14.5 121v293h150v-293q0 -68 -26 -120t-56 -88q-37 -43 -80 -74h-76zM88 729v205h150v-205h-150z" />
<glyph unicode="?" horiz-adv-x="1071" d="M0 1487v45h475q86 0 167 -23.5t143.5 -70.5t101.5 -119t41 -168q2 -57 -16.5 -108.5t-52.5 -93.5t-80 -73t-97 -45q-139 -41 -207.5 -121.5t-68.5 -181.5v-104h-195v123q0 100 38 169.5t93 117t118.5 74t112.5 40.5q82 23 122 82.5t40 130.5q0 61 -22.5 112.5t-63.5 89.5 t-99 59.5t-130 21.5h-230q-76 0 -118.5 12t-71.5 31zM207 102q0 43 29.5 73t72.5 30q41 0 72 -30t31 -73q0 -41 -31 -71.5t-72 -30.5q-43 0 -72.5 30.5t-29.5 71.5z" />
<glyph unicode="A" horiz-adv-x="1239" d="M0 0v82h68v1116v9q0 113 51 181q53 72 130 109t163 48t149 11h43q61 0 147.5 -11t164.5 -48t130 -109q51 -69 50 -181v-9v-1198h-181v659h-665v-659h-250zM250 741h665v451v10q-1 78 -31 132q-32 56 -82 87t-110 43q-51 10 -95 9h-15q-51 -2 -109.5 -13.5t-108.5 -42.5 q-52 -31 -84 -85q-31 -51 -30 -130v-10v-451z" />
<glyph unicode="B" horiz-adv-x="1239" d="M0 0v82h70v1450h422q63 0 149 -11.5t163 -48t130 -108.5q51 -69 51 -181v-9v-13v-9q0 -116 -52 -184q-54 -72 -130 -108q55 -12 109.5 -35.5t95.5 -63.5q40 -41 66 -99q24 -54 24 -126v-12v-166v-9q0 -115 -52 -183q-54 -70 -130 -106.5t-162 -48t-150 -11.5h-604z M252 82h299q49 0 112.5 9t121 38t95.5 85q35 52 35 137v14v151v9q1 87 -35 141q-38 56 -95.5 86t-121 38.5t-112.5 8.5h-299v-717zM252 885h186q49 0 111.5 9t118 38t94.5 85t41 150v9q0 88 -36 142q-38 56 -95.5 85t-121 38t-112.5 9h-186v-565z" />
<glyph unicode="C" horiz-adv-x="1060" d="M0 358v816v12q0 72 22 125q24 57 64.5 97t93.5 64.5t108.5 38t109 17.5t94.5 4h235q76 0 119 -8t72 -23v-51h-371q-49 0 -113.5 -9t-122 -38t-95.5 -85q-36 -53 -36 -142v-9v-802v-9q0 -88 36 -142q38 -56 95.5 -85t122 -38t113.5 -9h371v-51q-29 -14 -72 -22.5 t-119 -8.5h-235q-41 0 -94.5 4t-109 17.5t-108.5 38t-93 64.5q-41 40 -65 98q-23 53 -22 124v12z" />
<glyph unicode="D" horiz-adv-x="1241" d="M0 0v82h68v1450h536q63 0 149.5 -11.5t162.5 -48.5q76 -36 130 -108q52 -69 52 -182v-8v-816v-9q0 -115 -52 -183q-54 -70 -130 -106.5t-162 -48t-150 -11.5h-536h-68zM250 82h299q49 0 112.5 9t121 38t95.5 85q36 53 35 141v10v802v9q1 88 -35 142q-38 56 -95.5 85 t-121 38t-112.5 9h-299v-1368z" />
<glyph unicode="E" horiz-adv-x="1114" d="M0 358v816v12q0 72 22 125q24 57 64.5 97t93.5 64.5t108.5 38t109 17.5t94.5 4h288q76 0 119 -8t72 -23v-51h-424q-49 0 -113.5 -9t-122 -38t-95.5 -85q-34 -51 -34 -133v-18v-356h570v-51q-29 -14 -72 -23.5t-119 -9.5h-379v-362v-18q0 -83 34 -133q38 -56 95.5 -85 t122 -38t113.5 -9h424v-51q-29 -14 -72 -22.5t-119 -8.5h-288q-41 0 -94.5 4t-109 17.5t-108.5 38t-93 64.5q-41 40 -65 98q-23 53 -22 124v12z" />
<glyph unicode="F" horiz-adv-x="991" d="M0 0v1174v12q0 72 22 125q24 57 64.5 97t93.5 64.5t108.5 38t109 17.5t96.5 4h262q74 0 116.5 -8t71.5 -23v-51h-397q-49 0 -112.5 -9t-121 -38t-95.5 -85q-36 -53 -36 -142v-9v-356h633v-51q-29 -14 -72 -23.5t-118 -9.5h-443v-645h68v-82h-250z" />
<glyph unicode="G" horiz-adv-x="1150" d="M0 358v816v9q0 113 51 181q53 72 130 108.5t163 48t150 11.5h243q76 0 119 -8t72 -23v-51h-381q-49 0 -112.5 -9t-121 -38t-95.5 -85q-36 -53 -36 -142v-9v-802v-9q0 -88 36 -142q38 -56 95.5 -85t121 -38t112.5 -9h287v545q0 35 -24 66.5t-65 33.5l-317 2v49 q29 14 72 27.5t118 13.5h107q129 0 207 -77.5t78 -206.5v-467v-37q-29 -14 -72 -22.5t-119 -8.5h-325q-63 0 -149.5 11.5t-163.5 48t-130 107.5q-51 68 -51 182v9z" />
<glyph unicode="H" horiz-adv-x="1261" d="M0 0v82h70l-2 1368h-68v82h70h180v-721h686v721h182v-1532h-182v729h-686v-729h-180h-70z" />
<glyph unicode="I" horiz-adv-x="464" d="M72 0v1532h250v-82h-68v-1450h-182z" />
<glyph unicode="J" horiz-adv-x="704" d="M0 0v84q51 2 106.5 15.5t101.5 44t76 84.5q27 52 27 128v11v1165h250v-82h-67v-1092v-9q0 -115 -52 -183q-53 -70 -129.5 -106.5t-163 -48t-149.5 -11.5z" />
<glyph unicode="K" horiz-adv-x="1163" d="M0 1450v82h250v-621l2 2l448 441h170l-311 -316l506 -1038h-209l-424 911l-182 -186v-725h-182v1450h-68z" />
<glyph unicode="L" horiz-adv-x="1036" d="M0 1450v82h250v-1167v-11q0 -76 28 -126q30 -54 75.5 -84.5t101 -44t106.5 -15.5h184q74 -4 117 -11t72 -22v-51h-373q-43 0 -96 4t-108.5 17.5t-108.5 38t-93 64.5q-41 40 -65 98q-23 53 -22 124v12v1092h-68z" />
<glyph unicode="M" horiz-adv-x="1353" d="M0 0v1534h10v-2h172l393 -954l396 954h172v2h67v-82h-59v-1452h-180v1188l-396 -922l-393 922v-1188h-182z" />
<glyph unicode="N" horiz-adv-x="1171" d="M0 0v1532h182l596 -1247v1247l250 2v-82h-67v-1452h-185l-594 1239v-1239h-182z" />
<glyph unicode="O" horiz-adv-x="1181" d="M0 330v872q0 84 38 149.5t99.5 111.5t141 71t165.5 25h131q86 0 166 -25t141.5 -71t98.5 -111.5t37 -149.5v-872q0 -84 -37 -149.5t-98.5 -111.5t-141 -71t-166.5 -25h-131q-86 0 -165.5 25t-141 71t-99.5 111.5t-38 149.5zM182 338q0 -117 67.5 -196t194.5 -79h131 q125 0 193 79t68 196v856q0 117 -68 195.5t-193 78.5h-131q-127 0 -194.5 -78.5t-67.5 -195.5v-856z" />
<glyph unicode="P" horiz-adv-x="1239" d="M0 1452v82h604q61 0 147.5 -11.5t164.5 -48.5q78 -36 130 -108q51 -69 50 -181v-9v-377v-9q0 -114 -50 -182q-52 -70 -130 -107.5t-164 -49t-148 -11.5h-354v-440h-182v1452h-68zM250 522h299q49 0 113.5 9.5t122 38t95.5 84.5q35 52 35 137v14v364v9q1 88 -35 142 q-38 56 -95.5 85t-122 38t-113.5 9h-299v-930z" />
<glyph unicode="Q" horiz-adv-x="1159" d="M0 330v872q0 84 37 149.5t98.5 111.5t141 71t165.5 25h131q86 0 166 -25t141.5 -71t98.5 -111.5t37 -149.5v-872q0 -78 -32 -139.5t-85 -106.5t-123.5 -72.5t-146.5 -34.5q-4 -113 -58.5 -179t-130 -101t-159.5 -45t-146 -10v84q49 2 101.5 14t97.5 38.5t76.5 74 t35.5 120.5h-4q-86 0 -165.5 25t-141 71t-98.5 111.5t-37 149.5zM180 338q0 -117 67.5 -196t194.5 -79h131q125 0 193 79t68 196v856q0 117 -68 195.5t-193 78.5h-131q-127 0 -194.5 -78.5t-67.5 -195.5v-856z" />
<glyph unicode="R" horiz-adv-x="1241" d="M0 1452v82h604q63 0 149.5 -11.5t164.5 -48.5q78 -36 130 -108q51 -69 50 -181v-9v-377v-10q0 -97 -37 -159q-39 -65 -100 -106q133 -70 137 -250v-274h-176v367q0 35 -24 66.5t-64 35.5q-61 -16 -122 -22.5t-108 -6.5h-352v-440h-182v1452h-70zM252 522h299 q49 0 112.5 9.5t121 38t95.5 84.5q35 52 35 137v14v364v9q1 88 -35 142q-38 56 -95.5 85t-121 38t-112.5 9h-299v-930z" />
<glyph unicode="S" horiz-adv-x="1130" d="M-39 0v45q29 20 72 32.5t119 12.5h311q82 0 148.5 25.5t114.5 74t73.5 114t25.5 145.5q0 49 -10 92t-36.5 78.5t-70.5 63.5t-114 48q-16 4 -73.5 19.5t-123 33t-121 31.5t-69.5 19q-53 12 -98.5 41.5t-78.5 72.5q-34 44 -52 96q-17 47 -17 96v11q2 98 41 170t101.5 119 t143.5 70.5t167 23.5h475v-45q-29 -18 -72 -30.5t-119 -12.5h-229q-72 0 -130 -21.5t-99 -59.5t-63.5 -89t-22.5 -113q0 -72 39.5 -131t121.5 -82q51 -14 107.5 -28.5t109 -27.5t97.5 -25.5t76 -20.5q49 -14 105 -38t102 -67t77 -109.5t31 -166.5q0 -115 -37 -203 t-98.5 -146.5t-141 -88t-165.5 -29.5h-617z" />
<glyph unicode="T" horiz-adv-x="1009" d="M-119 1452v82h1018v-82h-418v-1452h-250v82h68v1370h-418z" />
<glyph unicode="U" horiz-adv-x="1228" d="M0 1452v82h250v-1196q0 -117 67.5 -196t194.5 -79h131q125 0 192.5 79t67.5 196v1196h182v-1204q0 -84 -36.5 -149.5t-98 -111.5t-141.5 -71t-166 -25h-131q-86 0 -166 25t-141.5 71t-98 111.5t-36.5 149.5v1122h-70z" />
<glyph unicode="V" horiz-adv-x="1089" d="M0 1452v82h211l326 -1262l327 1262h180l-415 -1534h-197l-381 1452h-51z" />
<glyph unicode="W" horiz-adv-x="1939" d="M-4 1452v82h211l325 -1262l328 1262h182l-30 -109l299 -1153l327 1262h181l-416 -1534h-197l-286 1087l-295 -1087h-195l-383 1452h-51z" />
<glyph unicode="X" horiz-adv-x="1296" d="M0 1452v82h250v-430q0 -57 17.5 -107.5t51 -87.5t82 -57.5t111.5 -20.5h129q63 0 111.5 20.5t82 57.5t51 87.5t17.5 107.5v430h182v-436q0 -111 -62 -191t-161 -121q98 -43 160.5 -121.5t62.5 -189.5v-393h68v-82h-250v467q0 117 -67.5 195.5t-194.5 78.5h-129 q-127 0 -194.5 -78.5t-67.5 -195.5v-467h-182v475q0 111 62.5 189.5t160.5 121.5q-98 41 -160.5 121t-62.5 191v354h-68z" />
<glyph unicode="Y" horiz-adv-x="1228" d="M0 1452v82h250v-692q0 -57 17.5 -107.5t51 -87.5t82 -57.5t111.5 -20.5h131q61 0 110.5 20.5t82 57.5t50 87t17.5 108v692h182v-698q0 -80 -34.5 -144.5t-93 -110.5t-134 -72t-157.5 -30v-479h-181v481q-82 4 -156.5 30t-133 71t-93 109.5t-34.5 144.5v616h-68z" />
<glyph unicode="Z" horiz-adv-x="1112" d="M0 0v217l807 1231v4h-739v-82h-68v164h969v-215l-801 -1237h801v-82h-969z" />
<glyph unicode="a" horiz-adv-x="1083" d="M-27 358q2 125 66.5 203t166.5 121q101 42 228 54q71 6 143 7q56 0 113 -4v191q0 35 -24.5 66.5t-65.5 33.5l-424 2v49q29 14 73 27.5t118 13.5h219q129 0 206.5 -77.5t79.5 -206.5v-756h68v-82h-473q-63 0 -149.5 11.5t-163 48t-130.5 107.5q-52 68 -51 182v9zM156 365 v-9q0 -88 36 -142q38 -56 95 -85t120.5 -38t112.5 -9h170v577q-39 2 -77 2q-63 0 -123 -6q-96 -10 -169 -42.5t-118 -93t-47 -154.5z" />
<glyph unicode="b" horiz-adv-x="1040" d="M-68 0v82h68v1450h182v-414h224q61 0 147 -11t164 -48t130 -107q50 -68 50 -181v-9v-404v-9q0 -115 -50 -183q-52 -70 -130 -106.5t-164 -48t-147 -11.5h-474zM182 82h168q49 0 113.5 9t122 38t95.5 85q36 53 36 142v9v389v9q0 87 -36 141q-38 56 -95.5 86t-122 38 t-113.5 8h-168v-954z" />
<glyph unicode="c" horiz-adv-x="931" d="M0 358v404v12q0 72 22 125q24 57 64.5 97t93.5 63.5t108.5 37t109 17.5t94.5 4l106 2q76 0 119 -9t71 -24v-51h-241q-49 0 -113.5 -8t-121.5 -38q-58 -30 -96 -86q-34 -51 -34 -132v-18v-389v-18q0 -83 34 -133q38 -56 95.5 -85t122 -38t113.5 -9h241v-51 q-29 -14 -71.5 -22.5t-118.5 -8.5h-106q-41 0 -94.5 4t-109 17.5t-108.5 38t-93 64.5q-41 40 -65 98q-23 53 -22 124v12z" />
<glyph unicode="d" d="M0 358v404v12q0 72 22 125q24 57 65.5 97t93.5 63.5t107.5 37t109 17.5t96.5 4h223v414h250v-82h-68v-1450h-405q-63 0 -149.5 11.5t-163.5 48t-130 107.5q-51 68 -51 182v9zM182 365v-9q0 -88 36 -142q38 -56 95.5 -85t121 -38t112.5 -9h170v954h-170q-49 0 -112.5 -8 t-120.5 -38q-58 -30 -96 -86q-36 -54 -36 -141v-9v-389z" />
<glyph unicode="e" horiz-adv-x="995" d="M0 358v428q0 84 39 146.5t102.5 103.5t144.5 61.5t167 20.5t165.5 -24.5t142 -70.5t99.5 -111.5t37 -149.5q0 -76 -58.5 -146.5t-213.5 -132.5q-68 -27 -137.5 -52t-130 -45.5t-107.5 -36t-68 -21.5q6 -82 46 -131.5t95.5 -75t116 -32.5t107.5 -7h51q76 0 119 -8t71 -23 v-51h-294q-43 0 -96.5 4t-109 17.5t-108.5 38t-93 64.5q-41 40 -65 98q-23 53 -22 124v12zM182 430q29 10 77 27.5t100.5 36t103.5 37t88 32.5q55 20 89 46t50.5 50.5t21.5 49t5 45.5q0 117 -67.5 195.5t-194.5 78.5q-63 0 -113.5 -21.5t-86.5 -58.5t-54.5 -87t-18.5 -107 v-324z" />
<glyph unicode="f" horiz-adv-x="690" d="M0 647v82h53v447v9q0 113 49 181q50 72 124.5 108.5t157.5 48t144 11.5h35t31 -2v-80q-49 0 -112.5 -9t-121 -38t-95.5 -85q-36 -53 -36 -142v-9v-440h316v-51q-29 -14 -72 -23.5t-119 -9.5h-125v-872h-176v874h-53z" />
<glyph unicode="g" d="M0 358v404v12q0 72 22 125q25 57 65 97t93 63.5t108.5 37t109 17.5t94.5 4h475v-82h-70v-1157v-9q0 -115 -50 -182q-52 -71 -130 -108t-164 -47t-147 -10v-2q-76 0 -119 9t-72 24v51h135q49 0 113.5 8t122 38t94.5 85q35 52 35 141v10v113h-223q-41 0 -94.5 4t-109 17.5 t-108.5 38t-93 64.5t-65 98q-22 53 -22 124v12zM182 365v-18q0 -81 34 -133q38 -56 95.5 -85t122 -38t113.5 -9h168v954h-168q-49 0 -113.5 -8t-122 -37.5t-95.5 -86.5q-34 -51 -34 -132v-18v-389z" />
<glyph unicode="h" d="M0 0v82h68v1450h182v-414h223q61 0 147.5 -11t164 -48t131.5 -107q52 -68 51 -181v-9v-762h-183v754v9q0 87 -36 141q-38 56 -95 86t-120.5 38t-112.5 8h-170v-1036h-250z" />
<glyph unicode="i" horiz-adv-x="440" d="M33 1376q0 41 29.5 72t72.5 31t73 -31t30 -72q0 -43 -30 -72.5t-73 -29.5t-72.5 29.5t-29.5 72.5zM43 0v1118h250v-82h-68v-1036h-182z" />
<glyph unicode="j" horiz-adv-x="528" d="M-176 -395q51 2 106.5 15t101.5 44t76 85q27 51 27 127v11v1231h250v-82h-68v-1157v-9q0 -115 -50 -182q-52 -71 -130 -108t-164 -47t-149 -10v82zM125 1376q0 41 29.5 72t72.5 31t73 -31t30 -72q0 -43 -30 -72.5t-73 -29.5t-72.5 29.5t-29.5 72.5z" />
<glyph unicode="k" d="M0 0v82h68v1450h182v-475q119 61 272 61q86 0 166 -23.5t141.5 -69.5t99.5 -112.5t38 -150.5q0 -98 -41 -171t-111 -124q72 -35 111 -100.5t41 -157.5v-209h-176v301q-2 35 -25 66.5t-64 35.5q-98 -41 -216 -55q-75 -9 -150 -9q-43 0 -86 3v-342h-250zM262 420 q19 -1 38 -1q82 1 158 15q94 18 167 58t116 106t43 158q0 57 -17 107t-51 87t-82 58.5t-112 21.5q-61 0 -110.5 -21.5t-82 -58.5t-50 -87t-17.5 -107v-336z" />
<glyph unicode="l" horiz-adv-x="393" d="M0 1450v82h250v-1532h-182v1450h-68z" />
<glyph unicode="m" horiz-adv-x="1832" d="M-2 1118h283v-39q55 33 121.5 49.5t138.5 16.5q104 0 196 -34t156 -99q63 66 156.5 99.5t195.5 33.5q86 0 166 -24.5t141.5 -70.5t99.5 -112t38 -150v-788h-183v782q0 57 -17 107.5t-51 87.5t-82 57.5t-112 20.5q-63 0 -111.5 -20.5t-81 -57.5t-50 -87t-17.5 -108v-782 h-182v782q0 57 -17.5 107.5t-51.5 87.5t-82 57.5t-111 20.5t-111.5 -20.5t-81.5 -57.5t-50 -87t-17 -108v-782h-183v788v242h-98z" />
<glyph unicode="n" horiz-adv-x="1128" d="M0 1030v88h281v-39q57 33 123.5 49.5t136.5 16.5q86 0 165.5 -24.5t142 -70.5t99.5 -112t37 -150v-788h-182v782q0 57 -17.5 107.5t-51.5 87.5t-82 57.5t-111 20.5q-61 0 -110.5 -20.5t-82.5 -57.5t-50 -87t-17 -108v-782h-183v788v242h-98z" />
<glyph unicode="o" horiz-adv-x="1032" d="M2 332v456q0 84 37 150t98.5 112t141 70.5t165.5 24.5t166 -24.5t141.5 -70.5t99.5 -112t38 -150v-456q0 -84 -38 -150.5t-99.5 -112.5t-141.5 -70t-166 -24t-165.5 24t-141 70t-98.5 112.5t-37 150.5zM184 338q0 -117 67.5 -196t192.5 -79q127 0 195 79t68 196v444 q0 57 -17.5 107.5t-51.5 87.5t-82 57.5t-112 20.5q-61 0 -110 -20.5t-82 -57.5t-50.5 -87t-17.5 -108v-444z" />
<glyph unicode="p" horiz-adv-x="1112" d="M2 1038v82h473q63 0 149.5 -11t164 -48t129.5 -109q51 -68 51 -181v-9v-404v-9q0 -115 -51 -183q-52 -70 -129.5 -106.5t-163.5 -48t-150 -11.5h-223v-477h-182v1515h-68zM252 82h170q49 0 112.5 9t121 38t94.5 85q36 53 36 143v10v389v9q0 88 -36 141q-37 57 -94.5 85.5 t-121 37.5t-112.5 9h-170v-956z" />
<glyph unicode="q" d="M0 358v404v12q0 72 22 125q25 57 65 97t93 64.5t108.5 38t109 17.5t96.5 4h473v-82h-70v-1515h-180v477h-223q-43 0 -96.5 4t-109 17.5t-108.5 38t-93 64.5t-65 98q-22 53 -22 124v12zM182 367v-10q0 -89 36 -143q38 -56 95.5 -85t121 -38t112.5 -9h170v956h-170 q-49 0 -112.5 -9t-121 -37.5t-95.5 -85.5q-36 -53 -36 -141v-9v-389z" />
<glyph unicode="r" horiz-adv-x="663" d="M-18 1030v88h280v-55q76 35 158 45t141 10v-84q-49 -4 -102 -18.5t-97 -45.5q-46 -30 -74 -83q-27 -50 -26 -123v-10v-754h-180l-2 1030h-98z" />
<glyph unicode="s" horiz-adv-x="1003" d="M-27 0v57q29 14 72 23.5t119 9.5h301q68 0 116 18.5t77.5 50t41.5 75.5q9 33 8 70q0 13 -1 26q-6 74 -60.5 111.5t-128.5 60.5q-16 6 -69.5 20.5t-113 29.5t-110.5 27.5t-63 16.5q-29 8 -62.5 22.5t-61.5 42t-46.5 68.5t-18.5 100q0 84 34 140.5t90.5 90.5t132 47 t161.5 13h379v-57q-29 -14 -72 -23.5t-118 -9.5h-168q-126 0 -190 -52q-56 -46 -57 -122q0 -10 1 -20q4 -47 37 -81t112 -57q94 -27 188.5 -52t153.5 -42q37 -10 80 -26.5t79 -46t60.5 -75.5t24.5 -114q0 -84 -26.5 -147.5t-73.5 -106.5t-109.5 -65.5t-134.5 -22.5h-584z " />
<glyph unicode="t" horiz-adv-x="692" d="M0 1036v82h70v283h180v-283h299v-84q-47 -4 -99.5 -18.5t-95.5 -43t-72.5 -76.5t-31.5 -122v-409v-11q0 -74 26 -122q28 -52 70.5 -83.5t96 -46t102.5 -18.5v-84q-41 0 -93.5 4t-106.5 17.5t-104.5 38t-88.5 64.5q-40 40 -62 98q-21 53 -20 123v13v172v230v2v274h-70z " />
<glyph unicode="u" horiz-adv-x="1099" d="M0 1036v82h252v-782q0 -57 17.5 -107.5t50 -87.5t81 -57.5t111.5 -20.5t111.5 20.5t82 57.5t51 87.5t17.5 107.5v782h182v-788q0 -84 -37.5 -149.5t-99 -111.5t-141.5 -71t-166 -25t-166 25t-141.5 71t-98 111.5t-36.5 149.5v706h-70z" />
<glyph unicode="v" horiz-adv-x="942" d="M-43 1118h180l262 -911l263 911h180l-353 -1118h-284v82h65z" />
<glyph unicode="w" horiz-adv-x="1560" d="M-57 1036v82h211l262 -938l260 938h182l-27 -80l240 -858l262 938h180l-352 -1118h-194l-226 745l-235 -745h-195l-315 1036h-53z" />
<glyph unicode="x" horiz-adv-x="1030" d="M0 0v303q0 111 62.5 190.5t160.5 120.5q-98 43 -160.5 122t-62.5 192v190h180v-184q0 -117 67.5 -196t194.5 -79t195 79t68 196v184h180v-190q0 -113 -61.5 -192t-159.5 -122q98 -41 159.5 -120.5t61.5 -190.5v-221h69v-82h-249v297q0 57 -17.5 107.5t-51.5 87t-82 58 t-112 21.5q-63 0 -111 -21.5t-82 -58t-51.5 -87t-17.5 -107.5v-297h-180z" />
<glyph unicode="y" horiz-adv-x="1099" d="M0 1036v82h252v-782q0 -57 17.5 -107.5t50 -87.5t81 -57.5t111.5 -20.5t111.5 20.5t82 57.5t51 87.5t17.5 107.5v782h182v-1239v-9q0 -115 -51 -182q-53 -71 -130 -108t-163 -48t-149 -11q-76 0 -119 9t-72 24v49h142q49 0 113.5 9t122 37.5t94.5 84.5q36 54 36 143v10 v154q-59 -33 -127.5 -50.5t-140.5 -17.5q-86 0 -166 25t-141.5 71t-98 111.5t-36.5 149.5v706h-70z" />
<glyph unicode="z" horiz-adv-x="980" d="M0 0v217l678 817v2h-608v-82h-70v164h838v-215l-662 -815h471q76 0 119 -8t72 -23v-57h-838z" />
<glyph unicode="&#xad;" horiz-adv-x="837" d="M0 510v143h694v-143h-694z" />
<glyph unicode="&#xe0;" horiz-adv-x="1081" d="M-29 356q2 125 66.5 203t166 121t228.5 54t256 3v191q0 35 -24.5 67.5t-65.5 34.5h-422v51q29 14 72 27.5t119 13.5h217q131 -2 207.5 -78.5t78.5 -207.5v-754h68v-82h-473q-61 0 -147.5 10t-164 47t-131 108t-51.5 191zM154 365q-2 -96 35.5 -151.5t95 -85.5t121 -38 t112.5 -8h170v577q-104 4 -199.5 -6t-169 -42.5t-118.5 -92t-47 -153.5zM303 1366v88q72 -61 156 -84.5t166 -23.5v-109q-41 0 -88.5 8t-92.5 25.5t-81.5 41t-59.5 54.5z" />
<glyph unicode="&#xe1;" horiz-adv-x="1083" />
<glyph unicode="&#xe2;" horiz-adv-x="1081" d="M-29 358q2 125 66.5 203t165 121t227.5 54.5t256 2.5v191q0 35 -23.5 67.5t-64.5 34.5h-424v51q29 14 72 27.5t119 13.5h219q129 -2 205.5 -79.5t78.5 -206.5v-756h70v-82h-475q-41 0 -94.5 4t-108.5 17.5t-108.5 38t-93.5 64.5t-64.5 97.5t-22.5 136.5zM154 367 q-2 -63 15 -109.5t46 -78.5t68 -50t79.5 -29.5t81.5 -14.5t74 -3h168v577q-104 6 -199.5 -4t-169 -42.5t-117.5 -92t-46 -153.5zM262 1251v119q102 25 187 86q43 -33 91 -53.5t99 -34.5v-117q-55 10 -104.5 35t-81.5 66h-4q-33 -41 -82.5 -65.5t-104.5 -35.5z" />
<glyph unicode="&#xe7;" horiz-adv-x="931" d="M0 358v404q-2 80 22.5 137t64.5 97t93 64.5t108.5 38t109 17.5t96.5 4h104q76 0 119 -8t71 -22v-52h-241q-49 0 -113.5 -9t-121 -37.5t-94.5 -85t-36 -150.5v-389q-2 -96 36 -151.5t94.5 -85.5t121 -38t113.5 -8h241v-51q-29 -14 -71.5 -23.5t-118.5 -9.5h-57 q-14 -82 -45 -131t-74 -75.5t-94.5 -36t-106.5 -9.5v82q82 4 121 42t57 134q-66 6 -137.5 23.5t-129.5 57.5t-96 105.5t-36 165.5z" />
<glyph unicode="&#xe8;" horiz-adv-x="995" d="M0 356v428q0 84 39 146.5t102.5 103.5t144.5 61.5t167 20.5t165.5 -23.5t141 -69.5t99.5 -112.5t38 -150.5q0 -76 -58.5 -145.5t-215.5 -133.5q-68 -27 -136.5 -51t-130 -44.5t-107.5 -36t-67 -21.5q6 -82 46 -131.5t94.5 -75t115 -32.5t107.5 -7h53q74 0 117 -9.5 t71 -23.5v-49h-294q-41 0 -94.5 4t-109 17.5t-108.5 37t-93 63.5t-64.5 97t-22.5 137zM180 430q31 10 79 27.5t100.5 36t103.5 37t86 32.5q55 20 89 46t50.5 50.5t21.5 49t5 45.5q0 57 -17.5 107t-50.5 87t-82 58.5t-110 21.5q-63 0 -113.5 -21.5t-86.5 -58.5t-55.5 -87 t-19.5 -107v-324zM293 1366v88q72 -61 157 -84.5t164 -23.5v-109q-41 0 -88 8t-92 25.5t-82 41t-59 54.5z" />
<glyph unicode="&#xe9;" horiz-adv-x="995" d="M0 356q-2 -80 22.5 -137t64.5 -97t93 -63.5t108.5 -37t109 -17.5t94.5 -4h296v49q-29 14 -72.5 23.5t-117.5 9.5h-51q-47 0 -107.5 7t-116 32.5t-95.5 75t-46 131.5q20 6 66.5 21.5l108 36t130 45t136.5 50.5q158 63 216 133t58 146q0 84 -38 150.5t-99.5 112.5 t-141 69.5t-165.5 23.5t-167 -20.5t-144.5 -61.5t-102.5 -103.5t-39 -146.5v-428zM180 430v324q0 57 19.5 107t55.5 87t86 58.5t114 21.5q61 0 110 -21.5t82 -58.5t50.5 -87t17.5 -107q0 -20 -5 -45t-21.5 -49.5t-49.5 -50t-90 -46.5q-35 -14 -86 -32.5t-103.5 -37 t-100.5 -36t-79 -27.5zM276 1237v109q80 0 165 23.5t157 84.5v-88q-23 -31 -59.5 -54.5t-81.5 -41t-92.5 -25.5t-88.5 -8z" />
<glyph unicode="&#xeb;" horiz-adv-x="995" d="M0 356v428q0 84 39 146.5t102.5 103.5t144.5 61.5t167 20.5t165.5 -23.5t141 -69.5t99.5 -112.5t38 -150.5q0 -76 -58.5 -145.5t-215.5 -133.5q-68 -27 -136.5 -51t-130 -44.5t-107.5 -36t-67 -21.5q6 -82 46 -131.5t94.5 -75t115 -32.5t107.5 -7h53q74 0 117 -9.5 t71 -23.5v-49h-294q-41 0 -94.5 4t-109 17.5t-108.5 37t-93 63.5t-64.5 97t-22.5 137zM180 430q31 10 79 27.5t100.5 36t103.5 37t86 32.5q55 20 89 46t50.5 50.5t21.5 49t5 45.5q0 57 -17.5 107t-50.5 87t-82 58.5t-110 21.5q-63 0 -113.5 -21.5t-86.5 -58.5t-55.5 -87 t-19.5 -107v-324zM254 1237v164h108v-164h-108zM518 1237v164h111v-164h-111z" />
<glyph unicode="&#xee;" horiz-adv-x="430" d="M-59 1249v119q102 25 186 86q43 -33 91 -53.5t99 -34.5v-117q-55 10 -104 35t-82 66h-4q-33 -41 -82 -65.5t-104 -35.5zM35 0v1118h252v-82h-70v-1036h-182z" />
<glyph unicode="&#xef;" horiz-adv-x="413" d="M-96 1237v164h108v-164h-108zM0 0v1118h250v-82h-70v-1036h-180zM168 1237v164h111v-164h-111z" />
<glyph unicode="&#xf4;" horiz-adv-x="1032" d="M-2 330v458q0 84 37 150t98.5 112t141 70.5t165.5 24.5t166 -24.5t141.5 -70.5t99.5 -112t38 -150v-458q0 -84 -38 -149.5t-99.5 -111.5t-141.5 -71t-166 -25t-165.5 25t-141 71t-98.5 111.5t-37 149.5zM180 338q0 -117 67.5 -196t192.5 -79q127 0 194.5 79t67.5 196v442 q0 117 -67.5 196t-194.5 79q-125 0 -192.5 -79t-67.5 -196v-442zM250 1251v119q49 12 96 32.5t90 53.5q43 -33 91 -54.5t100 -33.5v-119q-55 10 -104.5 36t-82.5 67h-4q-33 -41 -82 -65.5t-104 -35.5z" />
<glyph unicode="&#xf6;" horiz-adv-x="1030" d="M0 330v458q0 84 38 150t99.5 112t141 70.5t165.5 24.5t166 -24.5t141.5 -70.5t98.5 -112t37 -150v-458q0 -84 -37 -149.5t-98.5 -111.5t-141.5 -71t-166 -25t-165.5 25t-141 71t-99.5 111.5t-38 149.5zM182 338q0 -117 67.5 -196t194.5 -79t194 79t67 196v442 q0 117 -67 196t-194 79t-194.5 -79t-67.5 -196v-442zM256 1237v164h111v-164h-111zM522 1237v164h109v-164h-109z" />
<glyph unicode="&#xf9;" horiz-adv-x="1097" d="M0 1036v82h250v-782q0 -117 67.5 -196t194.5 -79t193.5 79t66.5 196v782h182v-788q0 -84 -36.5 -150.5t-98 -113t-141.5 -70t-166 -23.5t-166 23.5t-141.5 70t-99 113t-37.5 150.5v706h-68zM350 1366v88q72 -61 157 -84.5t165 -23.5v-109q-41 0 -88 8t-92.5 25.5t-82 41 t-59.5 54.5z" />
<glyph unicode="&#xfb;" horiz-adv-x="1097" d="M0 1038v82h250v-782q0 -117 67.5 -196t194.5 -79t193.5 79t66.5 196v782h182v-788q0 -84 -36.5 -150.5t-98 -112.5t-141.5 -71t-166 -25t-166 25t-141.5 71t-99 112.5t-37.5 150.5v706h-68zM326 1251v119q49 12 96 32.5t90 53.5q43 -33 91 -54.5t99 -33.5v-117 q-55 10 -104 35t-82 66h-4q-33 -41 -82 -65.5t-104 -35.5z" />
<glyph unicode="&#x2000;" horiz-adv-x="779" />
<glyph unicode="&#x2001;" horiz-adv-x="1559" />
<glyph unicode="&#x2002;" horiz-adv-x="779" />
<glyph unicode="&#x2003;" horiz-adv-x="1559" />
<glyph unicode="&#x2004;" horiz-adv-x="519" />
<glyph unicode="&#x2005;" horiz-adv-x="389" />
<glyph unicode="&#x2006;" horiz-adv-x="259" />
<glyph unicode="&#x2007;" horiz-adv-x="259" />
<glyph unicode="&#x2008;" horiz-adv-x="194" />
<glyph unicode="&#x2009;" horiz-adv-x="311" />
<glyph unicode="&#x200a;" horiz-adv-x="86" />
<glyph unicode="&#x2010;" horiz-adv-x="837" d="M0 510v143h694v-143h-694z" />
<glyph unicode="&#x2011;" horiz-adv-x="837" d="M0 510v143h694v-143h-694z" />
<glyph unicode="&#x2012;" horiz-adv-x="837" d="M0 510v143h694v-143h-694z" />
<glyph unicode="&#x2013;" horiz-adv-x="1167" d="M0 510v143h1024v-143h-1024z" />
<glyph unicode="&#x2014;" horiz-adv-x="2191" d="M0 510v143h2048v-143h-2048z" />
<glyph unicode="&#x202f;" horiz-adv-x="311" />
<glyph unicode="&#x205f;" horiz-adv-x="389" />
<glyph unicode="&#x25fc;" horiz-adv-x="1116" d="M0 0v1116h1116v-1116h-1116z" />
<glyph unicode="&#xfb01;" horiz-adv-x="1067" d="M0 647v82h53v447q-4 119 47.5 190.5t125 108t156.5 48t146 11.5q18 0 35 -1t31 -1v-80q-49 0 -112.5 -9t-121 -38t-95.5 -86t-36 -152v-438h445v389h250v-82h-68v-1036h-182v645h-445v-872h-176v872z" />
<glyph unicode="&#xfb02;" horiz-adv-x="1089" d="M0 647v82h53v447q-4 119 47.5 190.5t125 108t156.5 48t146 11.5h35t31 -2v-80q-49 0 -113.5 -9t-121 -38t-94.5 -85t-36 -151v-440h537v721h-70v82h250v-1532h-180v647h-537v-874h-176v874h-53z" />
</font>
</defs>
</svg>
